<?xml version="1.0" encoding="UTF-8"?>
<svg width="600" height="400" viewBox="0 0 600 400" fill="none" xmlns="http://www.w3.org/2000/svg">
  <!-- Grid pattern -->
  <path d="M0 20H600" stroke="white" stroke-opacity="0.05" stroke-width="1" />
  <path d="M0 40H600" stroke="white" stroke-opacity="0.05" stroke-width="1" />
  <path d="M0 60H600" stroke="white" stroke-opacity="0.05" stroke-width="1" />
  <path d="M0 80H600" stroke="white" stroke-opacity="0.05" stroke-width="1" />
  <path d="M0 100H600" stroke="white" stroke-opacity="0.05" stroke-width="1" />
  <path d="M0 120H600" stroke="white" stroke-opacity="0.05" stroke-width="1" />
  <path d="M0 140H600" stroke="white" stroke-opacity="0.05" stroke-width="1" />
  <path d="M0 160H600" stroke="white" stroke-opacity="0.05" stroke-width="1" />
  <path d="M0 180H600" stroke="white" stroke-opacity="0.05" stroke-width="1" />
  <path d="M0 200H600" stroke="white" stroke-opacity="0.05" stroke-width="1" />
  <path d="M0 220H600" stroke="white" stroke-opacity="0.05" stroke-width="1" />
  <path d="M0 240H600" stroke="white" stroke-opacity="0.05" stroke-width="1" />
  <path d="M0 260H600" stroke="white" stroke-opacity="0.05" stroke-width="1" />
  <path d="M0 280H600" stroke="white" stroke-opacity="0.05" stroke-width="1" />
  <path d="M0 300H600" stroke="white" stroke-opacity="0.05" stroke-width="1" />
  <path d="M0 320H600" stroke="white" stroke-opacity="0.05" stroke-width="1" />
  <path d="M0 340H600" stroke="white" stroke-opacity="0.05" stroke-width="1" />
  <path d="M0 360H600" stroke="white" stroke-opacity="0.05" stroke-width="1" />
  <path d="M0 380H600" stroke="white" stroke-opacity="0.05" stroke-width="1" />
  
  <path d="M20 0V400" stroke="white" stroke-opacity="0.05" stroke-width="1" />
  <path d="M40 0V400" stroke="white" stroke-opacity="0.05" stroke-width="1" />
  <path d="M60 0V400" stroke="white" stroke-opacity="0.05" stroke-width="1" />
  <path d="M80 0V400" stroke="white" stroke-opacity="0.05" stroke-width="1" />
  <path d="M100 0V400" stroke="white" stroke-opacity="0.05" stroke-width="1" />
  <path d="M120 0V400" stroke="white" stroke-opacity="0.05" stroke-width="1" />
  <path d="M140 0V400" stroke="white" stroke-opacity="0.05" stroke-width="1" />
  <path d="M160 0V400" stroke="white" stroke-opacity="0.05" stroke-width="1" />
  <path d="M180 0V400" stroke="white" stroke-opacity="0.05" stroke-width="1" />
  <path d="M200 0V400" stroke="white" stroke-opacity="0.05" stroke-width="1" />
  <path d="M220 0V400" stroke="white" stroke-opacity="0.05" stroke-width="1" />
  <path d="M240 0V400" stroke="white" stroke-opacity="0.05" stroke-width="1" />
  <path d="M260 0V400" stroke="white" stroke-opacity="0.05" stroke-width="1" />
  <path d="M280 0V400" stroke="white" stroke-opacity="0.05" stroke-width="1" />
  <path d="M300 0V400" stroke="white" stroke-opacity="0.05" stroke-width="1" />
  <path d="M320 0V400" stroke="white" stroke-opacity="0.05" stroke-width="1" />
  <path d="M340 0V400" stroke="white" stroke-opacity="0.05" stroke-width="1" />
  <path d="M360 0V400" stroke="white" stroke-opacity="0.05" stroke-width="1" />
  <path d="M380 0V400" stroke="white" stroke-opacity="0.05" stroke-width="1" />
  <path d="M400 0V400" stroke="white" stroke-opacity="0.05" stroke-width="1" />
  <path d="M420 0V400" stroke="white" stroke-opacity="0.05" stroke-width="1" />
  <path d="M440 0V400" stroke="white" stroke-opacity="0.05" stroke-width="1" />
  <path d="M460 0V400" stroke="white" stroke-opacity="0.05" stroke-width="1" />
  <path d="M480 0V400" stroke="white" stroke-opacity="0.05" stroke-width="1" />
  <path d="M500 0V400" stroke="white" stroke-opacity="0.05" stroke-width="1" />
  <path d="M520 0V400" stroke="white" stroke-opacity="0.05" stroke-width="1" />
  <path d="M540 0V400" stroke="white" stroke-opacity="0.05" stroke-width="1" />
  <path d="M560 0V400" stroke="white" stroke-opacity="0.05" stroke-width="1" />
  <path d="M580 0V400" stroke="white" stroke-opacity="0.05" stroke-width="1" />
  
  <!-- Candlestick chart pattern -->
  <g stroke-opacity="0.2">
    <!-- Candle 1 -->
    <line x1="60" y1="120" x2="60" y2="240" stroke="white" stroke-width="2" />
    <rect x="50" y="160" width="20" height="60" fill="green" fill-opacity="0.2" stroke="green" stroke-width="1" />
    
    <!-- Candle 2 -->
    <line x1="100" y1="130" x2="100" y2="240" stroke="white" stroke-width="2" />
    <rect x="90" y="170" width="20" height="50" fill="red" fill-opacity="0.2" stroke="red" stroke-width="1" />
    
    <!-- Candle 3 -->
    <line x1="140" y1="110" x2="140" y2="200" stroke="white" stroke-width="2" />
    <rect x="130" y="140" width="20" height="40" fill="green" fill-opacity="0.2" stroke="green" stroke-width="1" />
    
    <!-- Candle 4 -->
    <line x1="180" y1="100" x2="180" y2="220" stroke="white" stroke-width="2" />
    <rect x="170" y="120" width="20" height="80" fill="green" fill-opacity="0.2" stroke="green" stroke-width="1" />
    
    <!-- Candle 5 -->
    <line x1="220" y1="110" x2="220" y2="230" stroke="white" stroke-width="2" />
    <rect x="210" y="180" width="20" height="40" fill="red" fill-opacity="0.2" stroke="red" stroke-width="1" />
    
    <!-- Candle 6 -->
    <line x1="260" y1="120" x2="260" y2="250" stroke="white" stroke-width="2" />
    <rect x="250" y="190" width="20" height="50" fill="red" fill-opacity="0.2" stroke="red" stroke-width="1" />
    
    <!-- Candle 7 -->
    <line x1="300" y1="110" x2="300" y2="240" stroke="white" stroke-width="2" />
    <rect x="290" y="160" width="20" height="60" fill="green" fill-opacity="0.2" stroke="green" stroke-width="1" />
    
    <!-- Candle 8 -->
    <line x1="340" y1="100" x2="340" y2="180" stroke="white" stroke-width="2" />
    <rect x="330" y="120" width="20" height="40" fill="green" fill-opacity="0.2" stroke="green" stroke-width="1" />
    
    <!-- Candle 9 -->
    <line x1="380" y1="90" x2="380" y2="200" stroke="white" stroke-width="2" />
    <rect x="370" y="110" width="20" height="70" fill="green" fill-opacity="0.2" stroke="green" stroke-width="1" />
    
    <!-- Candle 10 -->
    <line x1="420" y1="100" x2="420" y2="240" stroke="white" stroke-width="2" />
    <rect x="410" y="200" width="20" height="30" fill="red" fill-opacity="0.2" stroke="red" stroke-width="1" />
    
    <!-- Candle 11 -->
    <line x1="460" y1="120" x2="460" y2="220" stroke="white" stroke-width="2" />
    <rect x="450" y="160" width="20" height="50" fill="red" fill-opacity="0.2" stroke="red" stroke-width="1" />
    
    <!-- Candle 12 -->
    <line x1="500" y1="90" x2="500" y2="200" stroke="white" stroke-width="2" />
    <rect x="490" y="110" width="20" height="60" fill="green" fill-opacity="0.2" stroke="green" stroke-width="1" />
    
    <!-- Candle 13 -->
    <line x1="540" y1="80" x2="540" y2="180" stroke="white" stroke-width="2" />
    <rect x="530" y="100" width="20" height="50" fill="green" fill-opacity="0.2" stroke="green" stroke-width="1" />
  </g>
  
  <!-- Trend lines -->
  <path d="M40 180 Q 200 250 320 120 Q 400 80 560 100" stroke="#9d4edd" stroke-opacity="0.3" stroke-width="2" fill="none" />
  
  <!-- Support/Resistance lines -->
  <path d="M20 200 H 580" stroke="#4cc9f0" stroke-opacity="0.2" stroke-width="2" stroke-dasharray="5,5" />
  <path d="M20 120 H 580" stroke="#4cc9f0" stroke-opacity="0.2" stroke-width="2" stroke-dasharray="5,5" />
  
  <!-- Chart labels -->
  <text x="550" y="20" fill="white" fill-opacity="0.15" font-family="monospace" font-size="14">BTC/USDT</text>
  <text x="20" y="20" fill="white" fill-opacity="0.15" font-family="monospace" font-size="14">NeuralTrade X</text>
</svg>