<?xml version="1.0" encoding="UTF-8"?>
<svg width="240" height="240" viewBox="0 0 240 240" fill="none" xmlns="http://www.w3.org/2000/svg">
  <defs>
    <linearGradient id="logoGradient" x1="0%" y1="0%" x2="100%" y2="100%">
      <stop offset="0%" stop-color="#7b2cbf" />
      <stop offset="50%" stop-color="#9d4edd" />
      <stop offset="100%" stop-color="#4cc9f0" />
    </linearGradient>
    <filter id="glow" x="-20%" y="-20%" width="140%" height="140%">
      <feGaussianBlur stdDeviation="10" result="blur" />
      <feComposite in="SourceGraphic" in2="blur" operator="over" />
    </filter>
  </defs>
  
  <!-- Base Circle -->
  <circle cx="120" cy="120" r="100" fill="#16213e" />
  
  <!-- Neural Network Node -->
  <circle cx="120" cy="120" r="65" fill="url(#logoGradient)" filter="url(#glow)" />
  
  <!-- Network Lines -->
  <g stroke="white" stroke-opacity="0.4" stroke-width="2">
    <!-- Central Node Connections -->
    <line x1="120" y1="120" x2="60" y2="80" />
    <line x1="120" y1="120" x2="60" y2="160" />
    <line x1="120" y1="120" x2="180" y2="80" />
    <line x1="120" y1="120" x2="180" y2="160" />
    
    <!-- Outer Nodes -->
    <circle cx="60" cy="80" r="8" fill="#9d4edd" />
    <circle cx="60" cy="160" r="8" fill="#4cc9f0" />
    <circle cx="180" cy="80" r="8" fill="#4cc9f0" />
    <circle cx="180" cy="160" r="8" fill="#9d4edd" />
  </g>
  
  <!-- Letter N -->
  <path d="M103 90L103 150L118 150L118 115L133 145L148 145L148 85L133 85L133 120L118 90L103 90Z" fill="white" />
  
  <!-- X -->
  <path d="M155 90L140 115L155 140L170 140L155 115L170 90L155 90Z" fill="white" />
</svg>